<?xml version="1.0" standalone="no"?><!DOCTYPE svg PUBLIC "-//W3C//DTD SVG 1.1//EN" "http://www.w3.org/Graphics/SVG/1.1/DTD/svg11.dtd"><svg t="1661574842928" class="icon" viewBox="0 0 1084 1024" version="1.1" xmlns="http://www.w3.org/2000/svg" p-id="2090" xmlns:xlink="http://www.w3.org/1999/xlink" width="211.71875" height="200"><path d="M692.705882 331.294118m-90.352941 0a90.352941 90.352941 0 1 0 180.705883 0 90.352941 90.352941 0 1 0-180.705883 0Z" fill="#1E2330" p-id="2091"></path><path d="M900.999529 665.118118v-180.705883h-120.470588v180.705883h-180.705882v120.470588h180.705882v180.705882h120.470588v-180.705882h180.705883v-120.470588z" fill="#1E2330" p-id="2092"></path><path d="M481.882353 903.529412L120.470588 542.117647l421.647059-421.647059h361.411765v361.411765h120.470588V120.470588a120.470588 120.470588 0 0 0-120.470588-120.470588H542.117647c-31.984941 0-62.584471 12.709647-85.172706 35.297882l-421.647059 421.647059a120.470588 120.470588 0 0 0 0 170.345412l361.411765 361.411765c23.552 23.552 54.332235 35.297882 85.172706 35.297882a119.868235 119.868235 0 0 0 85.172706-35.297882l110.290823-110.290824H507.000471L481.882353 903.529412z"  p-id="2093"></path></svg>