<?xml version="1.0" standalone="no"?><!DOCTYPE svg PUBLIC "-//W3C//DTD SVG 1.1//EN" "http://www.w3.org/Graphics/SVG/1.1/DTD/svg11.dtd"><svg t="1661855788804" class="icon" viewBox="0 0 1024 1024" version="1.1" xmlns="http://www.w3.org/2000/svg" p-id="712" xmlns:xlink="http://www.w3.org/1999/xlink" width="200" height="200"><path d="M711.111 28.444c17.06699999 0 28.44500001 5.69 39.822 17.067 22.756 22.756 17.067 56.889-5.689 79.645L381.156 455.11c-11.378 11.378-17.067 22.756-17.067 34.133 0 11.37800001 5.689 22.756 17.067 34.134L750.93299999 836.267c22.756 22.755 28.44500001 56.889 5.69000001 79.644-22.756 22.756-56.89 28.445-79.645 5.689l-364.09-312.889C278.757 580.26700001 256 534.756 256 489.244s17.067-85.33299999 51.2-119.466L671.289 39.822c11.378-5.689 28.444-11.378 39.822-11.378z" p-id="713"></path></svg>