<?xml version="1.0" standalone="no"?><!DOCTYPE svg PUBLIC "-//W3C//DTD SVG 1.1//EN" "http://www.w3.org/Graphics/SVG/1.1/DTD/svg11.dtd"><svg t="1661574831959" class="icon" viewBox="0 0 1024 1024" version="1.1" xmlns="http://www.w3.org/2000/svg" p-id="1779" xmlns:xlink="http://www.w3.org/1999/xlink" width="200" height="200"><path d="M204.8 375.466667c0 6.826667 6.826667 20.48 68.266667 30.72V341.333333c-40.96 3.413333-68.266667 20.48-68.266667 34.133334z" fill="" p-id="1780"></path><path d="M512 0C228.693333 0 0 228.693333 0 512s228.693333 512 512 512 512-228.693333 512-512S795.306667 0 512 0zM170.666667 484.693333c0-10.24 6.826667-17.066667 13.653333-20.48 10.24 0 20.48 6.826667 20.48 13.653334 0 13.653333 27.306667 27.306667 68.266667 30.72v-68.266667c-34.133333-3.413333-102.4-17.066667-102.4-64.853333 0-34.133333 44.373333-61.44 102.4-68.266667v-17.066667c0-10.24 6.826667-17.066667 17.066666-17.066666s17.066667 6.826667 17.066667 17.066666V307.2c54.613333 3.413333 98.986667 27.306667 102.4 61.44 0 10.24-6.826667 17.066667-13.653333 20.48-10.24 0-17.066667-6.826667-20.48-13.653333 0-13.653333-27.306667-27.306667-68.266667-30.72v68.266666c34.133333 3.413333 102.4 17.066667 102.4 64.853334 0 34.133333-44.373333 61.44-102.4 68.266666v17.066667c0 10.24-6.826667 17.066667-17.066667 17.066667s-17.066667-6.826667-17.066666-17.066667V546.133333c-54.613333-6.826667-98.986667-30.72-102.4-61.44z m593.92 191.146667C709.973333 764.586667 614.4 819.2 512 819.2s-197.973333-54.613333-252.586667-143.36c-3.413333-6.826667-3.413333-17.066667 6.826667-23.893333 6.826667-6.826667 17.066667-3.413333 20.48 3.413333C337.92 737.28 419.84 785.066667 512 785.066667s174.08-47.786667 225.28-129.706667c3.413333-6.826667 17.066667-10.24 23.893333-6.826667 6.826667 6.826667 10.24 17.066667 3.413334 27.306667zM750.933333 546.133333v17.066667c0 10.24-6.826667 17.066667-17.066666 17.066667s-17.066667-6.826667-17.066667-17.066667V546.133333c-54.613333-3.413333-98.986667-27.306667-102.4-61.44 0-10.24 6.826667-17.066667 13.653333-20.48 10.24 0 17.066667 6.826667 20.48 13.653334 0 13.653333 27.306667 27.306667 68.266667 30.72v-68.266667c-34.133333-3.413333-102.4-17.066667-102.4-64.853333 0-34.133333 44.373333-61.44 102.4-68.266667v-17.066667c0-10.24 6.826667-17.066667 17.066667-17.066666s17.066667 6.826667 17.066666 17.066666V307.2c54.613333 3.413333 98.986667 27.306667 102.4 61.44 0 10.24-6.826667 17.066667-13.653333 20.48-10.24 0-17.066667-6.826667-20.48-13.653333 0-13.653333-27.306667-27.306667-68.266667-30.72v68.266666c34.133333 3.413333 102.4 17.066667 102.4 64.853334 0 34.133333-44.373333 61.44-102.4 68.266666z" fill="" p-id="1781"></path><path d="M375.466667 477.866667c0-6.826667-6.826667-20.48-68.266667-30.72V512c40.96-3.413333 68.266667-20.48 68.266667-34.133333zM648.533333 375.466667c0 6.826667 6.826667 20.48 68.266667 30.72V341.333333c-40.96 3.413333-68.266667 20.48-68.266667 34.133334zM750.933333 447.146667V512c40.96-3.413333 68.266667-20.48 68.266667-34.133333 0-6.826667-6.826667-20.48-68.266667-30.72z" fill="" p-id="1782"></path></svg>